<svg width="50" height="18" viewBox="0 0 50 18" fill="none" xmlns="http://www.w3.org/2000/svg">
<path d="M6.416 14.605C6.30933 14.605 6.21867 14.573 6.144 14.509C6.08 14.4343 6.048 14.3436 6.048 14.237V11.933H0.864C0.757333 11.933 0.666667 11.901 0.592 11.837C0.528 11.7623 0.496 11.6716 0.496 11.565V10.925C0.496 10.765 0.554667 10.605 0.672 10.445L5.472 3.67698C5.52533 3.59165 5.60533 3.52765 5.712 3.48498C5.81867 3.43165 5.936 3.40498 6.064 3.40498H7.216C7.32267 3.40498 7.408 3.44231 7.472 3.51698C7.54667 3.58098 7.584 3.66631 7.584 3.77298V10.541H9.024C9.13067 10.541 9.22133 10.5783 9.296 10.653C9.37067 10.717 9.408 10.8023 9.408 10.909V11.565C9.408 11.6716 9.37067 11.7623 9.296 11.837C9.232 11.901 9.14667 11.933 9.04 11.933H7.584V14.237C7.584 14.3436 7.54667 14.4343 7.472 14.509C7.408 14.573 7.32267 14.605 7.216 14.605H6.416ZM6.064 10.573V5.08498L2.208 10.573H6.064ZM11.1431 14.605C11.0365 14.605 10.9458 14.573 10.8711 14.509C10.8071 14.4343 10.7751 14.3436 10.7751 14.237V13.085C10.7751 12.9783 10.8071 12.893 10.8711 12.829C10.9458 12.7543 11.0365 12.717 11.1431 12.717H12.2951C12.4018 12.717 12.4925 12.7543 12.5671 12.829C12.6418 12.893 12.6791 12.9783 12.6791 13.085V14.237C12.6791 14.3436 12.6418 14.4343 12.5671 14.509C12.4925 14.573 12.4018 14.605 12.2951 14.605H11.1431ZM18.4064 14.765C17.5957 14.765 16.897 14.621 16.3104 14.333C15.7237 14.045 15.2704 13.6663 14.9504 13.197C14.641 12.7276 14.4757 12.2263 14.4544 11.693V11.661C14.4544 11.5756 14.4864 11.5063 14.5504 11.453C14.6144 11.3996 14.689 11.373 14.7744 11.373H15.6384C15.8624 11.373 16.0064 11.4903 16.0704 11.725C16.2197 12.2903 16.5077 12.7116 16.9344 12.989C17.361 13.2663 17.8517 13.405 18.4064 13.405C19.121 13.405 19.713 13.1916 20.1824 12.765C20.6624 12.3276 20.9024 11.725 20.9024 10.957C20.9024 10.2636 20.6624 9.70365 20.1824 9.27698C19.713 8.85031 19.121 8.63698 18.4064 8.63698C18.0224 8.63698 17.713 8.69031 17.4784 8.79698C17.2437 8.89298 17.009 9.03165 16.7744 9.21298C16.6464 9.30898 16.5344 9.38365 16.4384 9.43698C16.353 9.47965 16.257 9.50098 16.1504 9.50098H15.3184C15.2224 9.50098 15.137 9.46898 15.0624 9.40498C14.9877 9.33031 14.9557 9.24498 14.9664 9.14898L15.4784 3.80498C15.489 3.67698 15.5264 3.58098 15.5904 3.51698C15.665 3.44231 15.761 3.40498 15.8784 3.40498H21.4624C21.569 3.40498 21.6544 3.44231 21.7184 3.51698C21.793 3.58098 21.8304 3.66631 21.8304 3.77298V4.39698C21.8304 4.50365 21.793 4.59431 21.7184 4.66898C21.6544 4.73298 21.569 4.76498 21.4624 4.76498H16.8544L16.5504 7.91698C17.1264 7.55431 17.8197 7.37298 18.6304 7.37298C19.3344 7.37298 19.9797 7.51698 20.5664 7.80498C21.1637 8.09298 21.633 8.50898 21.9744 9.05298C22.3264 9.59698 22.5024 10.237 22.5024 10.973C22.5024 11.7623 22.3264 12.445 21.9744 13.021C21.633 13.5863 21.153 14.0183 20.5344 14.317C19.9157 14.6156 19.2064 14.765 18.4064 14.765Z" fill="#0B132A"/>
<path d="M48.1891 6.41802L44.2219 5.84146L42.4485 2.24615C42.4 2.14771 42.3203 2.06802 42.2219 2.01959C41.975 1.89771 41.675 1.99927 41.5516 2.24615L39.7782 5.84146L35.811 6.41802C35.7016 6.43365 35.6016 6.48521 35.525 6.56334C35.4325 6.65847 35.3815 6.78646 35.3832 6.91918C35.385 7.0519 35.4394 7.1785 35.5344 7.27115L38.4047 10.0696L37.7266 14.0211C37.7107 14.1131 37.7209 14.2076 37.756 14.294C37.791 14.3805 37.8497 14.4554 37.9251 14.5102C38.0006 14.565 38.0899 14.5976 38.183 14.6042C38.276 14.6108 38.3691 14.5913 38.4516 14.5477L42 12.6821L45.5485 14.5477C45.6453 14.5993 45.7578 14.6165 45.8657 14.5977C46.1375 14.5508 46.3203 14.293 46.2735 14.0211L45.5953 10.0696L48.4657 7.27115C48.5438 7.19459 48.5953 7.09459 48.611 6.98521C48.6532 6.71177 48.4625 6.45865 48.1891 6.41802Z" fill="#FEA250"/>
</svg>
