<?xml version="1.0" encoding="utf-8"?>
<!-- Generator: Adobe Illustrator 24.1.2, SVG Export Plug-In . SVG Version: 6.00 Build 0)  -->
<svg version="1.1" id="Слой_1" xmlns="http://www.w3.org/2000/svg" xmlns:xlink="http://www.w3.org/1999/xlink" x="0px" y="0px"
	 viewBox="0 0 33.6 33.5" style="enable-background:new 0 0 33.6 33.5;" xml:space="preserve">
<style type="text/css">
	.st0{fill:#F53838;}
	.st1{fill:#FFFFFF;}
</style>
<g>
	<circle class="st0" cx="16.8" cy="16.8" r="16.8"/>
</g>
<path class="st1" d="M22,16.8c0,1.4-0.6,2.7-1.5,3.7c-1,1-2.3,1.5-3.7,1.5c-1.4,0-2.7-0.6-3.7-1.5c-1-1-1.5-2.3-1.5-3.7
	c0-0.3,0-0.6,0.1-0.9H9.8v7c0,0.5,0.4,0.9,0.9,0.9h12.2c0.2,0,0.5-0.1,0.6-0.3c0.2-0.2,0.3-0.4,0.3-0.6v-7H22
	C22,16.2,22,16.5,22,16.8z M16.8,20.3c0.5,0,0.9-0.1,1.3-0.3c0.4-0.2,0.8-0.4,1.1-0.8c0.3-0.3,0.6-0.7,0.8-1.1
	c0.2-0.4,0.3-0.9,0.3-1.3c0-0.5-0.1-0.9-0.3-1.3c-0.2-0.4-0.4-0.8-0.8-1.1c-0.3-0.3-0.7-0.6-1.1-0.8c-0.4-0.2-0.9-0.3-1.3-0.3
	c-0.9,0-1.8,0.4-2.5,1c-0.7,0.7-1,1.5-1,2.5s0.4,1.8,1,2.5C15,19.9,15.9,20.3,16.8,20.3z M21,13.1h2.1c0.1,0,0.3-0.1,0.4-0.2
	c0.1-0.1,0.2-0.2,0.2-0.4v-2.1c0-0.1-0.1-0.3-0.2-0.4C23.4,10,23.2,10,23.1,10H21c-0.1,0-0.3,0.1-0.4,0.2c-0.1,0.1-0.2,0.2-0.2,0.4
	v2.1C20.5,12.9,20.7,13.1,21,13.1z M16.8,0C12.3,0,8.1,1.8,4.9,4.9C1.8,8.1,0,12.3,0,16.8c0,4.5,1.8,8.7,4.9,11.9
	c3.2,3.2,7.4,4.9,11.9,4.9c2.2,0,4.4-0.4,6.4-1.3c2-0.8,3.9-2.1,5.5-3.6c1.6-1.6,2.8-3.4,3.6-5.5c0.8-2,1.3-4.2,1.3-6.4
	s-0.4-4.4-1.3-6.4c-0.8-2-2.1-3.9-3.6-5.5c-1.6-1.6-3.4-2.8-5.5-3.6C21.2,0.4,19,0,16.8,0z M25.5,23.6c0,1.1-0.9,1.9-1.9,1.9H10
	c-1.1,0-1.9-0.9-1.9-1.9V10C8,8.9,8.9,8,10,8h13.6c1.1,0,1.9,0.9,1.9,1.9V23.6z"/>
</svg>
