<?xml version="1.0" encoding="utf-8"?>
<!-- Generator: Adobe Illustrator 24.1.2, SVG Export Plug-In . SVG Version: 6.00 Build 0)  -->
<svg version="1.1" id="Слой_1" xmlns="http://www.w3.org/2000/svg" xmlns:xlink="http://www.w3.org/1999/xlink" x="0px" y="0px"
	 viewBox="0 0 33.6 33.6" style="enable-background:new 0 0 33.6 33.6;" xml:space="preserve">
<style type="text/css">
	.st0{fill:#F53838;}
	.st1{fill:#FFFFFF;}
</style>
<g>
	<circle class="st0" cx="16.8" cy="16.8" r="16.8"/>
</g>
<path class="st1" d="M16.8,0C7.5,0,0,7.5,0,16.8s7.5,16.8,16.8,16.8s16.8-7.5,16.8-16.8S26.1,0,16.8,0z M23.6,13.8
	c0,0.1,0,0.3,0,0.4c0,4.4-3.3,9.4-9.4,9.4c-1.8,0-3.6-0.5-5.1-1.5c0.3,0,0.5,0,0.8,0c1.6,0,3-0.5,4.1-1.4c-0.7,0-1.4-0.2-1.9-0.7
	c-0.6-0.4-1-1-1.2-1.6c0.5,0.1,1,0.1,1.5-0.1c-0.7-0.2-1.4-0.6-1.9-1.1c-0.5-0.6-0.7-1.3-0.7-2.1v0c0.4,0.2,1,0.4,1.5,0.4
	c-0.7-0.5-1.2-1.2-1.4-2c-0.2-0.8-0.1-1.7,0.4-2.4c0.8,1,1.9,1.9,3,2.5c1.2,0.6,2.5,0.9,3.8,1c-0.2-0.7-0.1-1.5,0.2-2.1
	c0.3-0.7,0.8-1.2,1.5-1.6c0.6-0.3,1.4-0.5,2.1-0.3c0.7,0.1,1.4,0.5,1.9,1c0.7-0.1,1.5-0.4,2.1-0.8c-0.2,0.8-0.8,1.4-1.5,1.8
	c0.7-0.1,1.3-0.3,1.9-0.5C24.8,12.7,24.3,13.3,23.6,13.8z"/>
</svg>
